<?xml version="1.0" standalone="no"?>
<!DOCTYPE svg PUBLIC "-//W3C//DTD SVG 20010904//EN"
 "http://www.w3.org/TR/2001/REC-SVG-20010904/DTD/svg10.dtd">
<svg version="1.0" xmlns="http://www.w3.org/2000/svg"
 width="592.000000pt" height="592.000000pt" viewBox="0 0 592.000000 592.000000"
 preserveAspectRatio="xMidYMid meet">
<metadata>
Created by potrace 1.14, written by Peter Selinger 2001-2017
</metadata>
<g transform="translate(0.000000,592.000000) scale(0.100000,-0.100000)"
fill="#000000" stroke="none">
<path d="M2947 5764 c-2 -3 -56 -6 -118 -9 -63 -2 -136 -6 -164 -10 -53 -6
-176 -25 -210 -31 -11 -2 -33 -7 -48 -9 -163 -30 -375 -97 -567 -178 -14 -5
-28 -10 -32 -9 -5 1 -8 -2 -8 -7 0 -5 -10 -11 -22 -14 -13 -4 -70 -32 -128
-63 -143 -78 -133 -71 -245 -146 -302 -202 -569 -469 -769 -768 -31 -47 -61
-90 -66 -97 -6 -7 -10 -17 -10 -22 0 -5 -6 -16 -13 -23 -6 -7 -21 -31 -32 -53
-11 -22 -22 -42 -25 -45 -12 -12 -30 -51 -30 -64 0 -8 -4 -16 -8 -18 -13 -5
-133 -290 -147 -348 -2 -8 -16 -51 -30 -95 -15 -44 -28 -93 -30 -109 -3 -15
-7 -36 -10 -46 -3 -10 -8 -29 -10 -42 -3 -13 -8 -36 -11 -53 -4 -16 -8 -39
-10 -50 -2 -11 -5 -31 -8 -45 -29 -152 -43 -566 -23 -725 14 -113 16 -130 23
-175 4 -25 8 -47 9 -50 2 -11 18 -86 21 -100 13 -71 18 -90 30 -125 7 -22 14
-49 14 -60 0 -12 4 -25 8 -30 5 -6 14 -30 21 -55 33 -119 188 -467 226 -510 8
-8 15 -19 16 -25 2 -11 34 -64 80 -133 16 -24 29 -47 29 -52 0 -4 3 -10 8 -12
4 -1 32 -37 63 -78 31 -41 66 -86 78 -100 133 -154 192 -215 312 -321 224
-199 501 -372 789 -492 134 -55 391 -132 510 -152 19 -3 42 -8 50 -10 8 -3 35
-7 60 -11 25 -3 59 -8 75 -10 71 -10 136 -15 233 -18 57 -2 105 -6 108 -9 3
-3 18 -2 33 3 16 4 34 4 42 0 7 -5 17 -6 22 -3 4 3 41 6 80 8 75 3 196 14 231
21 11 2 36 6 56 9 20 3 47 7 60 10 14 3 41 8 60 11 19 3 57 12 83 20 27 7 52
13 55 12 4 -1 14 2 22 5 8 3 35 11 60 18 25 7 50 14 55 15 46 13 200 70 241
90 28 13 54 24 58 24 8 0 178 82 186 90 3 3 19 12 35 20 74 37 254 155 360
237 209 160 442 407 590 624 67 98 175 280 175 295 0 7 3 14 8 16 10 4 85 167
126 275 54 143 102 303 121 403 3 14 7 36 10 50 11 54 16 76 20 115 3 22 7 47
10 55 26 93 26 662 0 750 -2 8 -6 35 -9 60 -6 49 -14 96 -21 120 -2 8 -7 29
-9 45 -3 17 -15 66 -26 110 -27 102 -26 97 -33 115 -3 8 -13 40 -23 70 -20 65
-66 184 -100 258 -13 29 -24 57 -24 61 0 5 -3 11 -7 13 -5 2 -21 30 -36 63
-16 33 -36 71 -45 85 -9 14 -17 27 -17 30 -1 5 -41 71 -86 138 -16 24 -29 47
-29 52 0 4 -3 10 -7 12 -5 2 -34 38 -65 80 -128 172 -315 366 -473 491 -33 27
-68 54 -77 62 -9 8 -29 22 -45 32 -15 9 -30 20 -33 23 -9 11 -182 121 -198
127 -10 4 -19 10 -22 13 -6 9 -148 81 -156 79 -4 0 -10 3 -13 8 -6 9 -195 93
-216 97 -5 1 -14 4 -20 7 -13 8 -173 61 -180 60 -3 -1 -21 5 -40 13 -19 8 -35
13 -35 11 0 -2 -15 1 -32 6 -129 38 -362 74 -540 83 -36 2 -70 6 -75 9 -4 2
-17 1 -28 -3 -11 -4 -30 -4 -41 1 -12 4 -24 6 -27 3z"/>
</g>
</svg>
